<svg width="22.149414" height="24.000183" viewBox="0 0 22.1494 24.0002" fill="none" xmlns="http://www.w3.org/2000/svg" xmlns:xlink="http://www.w3.org/1999/xlink">
	<desc>
			Created with Pixso.
	</desc>
	<defs/>
	<path id="Vector" d="M21.9639 5.13934C21.4915 3.10266 20.115 1.61023 17.9792 0.819275C16.5564 0.293762 13.0913 -0.187012 11.5657 1.60614C6.64746 -1.30811 4.0542 0.279358 2.3103 2.15253C-1.53882 6.28717 0.222168 10.4525 1.86792 12.2609C3.05786 13.5704 3.40186 14.3277 3.59473 15.1926C3.63794 15.3829 3.73608 15.9449 3.74097 16.0653C4.04517 23.2678 6.50098 23.8849 7.08813 23.9283C7.25928 23.9777 7.42798 24.0002 7.59106 24.0002C7.89038 24.0002 8.17383 23.9203 8.43115 23.7626C9.65088 23.0151 10.0269 20.688 10.3572 18.6389C10.4773 17.8973 10.5894 17.1973 10.7205 16.79C10.9475 16.0849 11.1355 15.9241 11.1335 15.8997C11.2974 15.9725 11.5735 16.5001 11.604 16.708C11.6492 17.0186 11.6819 17.4209 11.7183 17.8717C11.9065 20.1851 12.1875 23.6737 14.6479 23.9263C14.8225 23.9637 15.2378 24.0023 15.7476 23.6946C16.9072 22.9905 17.7659 20.9739 18.2974 17.7001L18.3772 17.1765C18.5686 15.8641 18.8337 14.0655 19.9177 12.9256C21.1702 11.6179 22.6816 8.23615 21.9639 5.13934ZM19.1909 12.2312C17.8855 13.6039 17.5818 15.6667 17.3826 17.0334L17.3057 17.5402C16.6934 21.3062 15.7822 22.443 15.2952 22.7863C15.0376 22.9677 14.877 22.9421 14.8945 22.949L14.7803 22.9262C13.1316 22.7822 12.8889 19.7817 12.7292 17.7927C12.6897 17.3155 12.6553 16.8906 12.6079 16.5621C12.5596 16.2307 12.0903 14.9666 11.2275 14.8947C10.2996 14.8325 9.89673 16.069 9.76465 16.4811C9.60986 16.9634 9.49585 17.6644 9.36475 18.479C9.1123 20.039 8.73169 22.3976 7.90625 22.9045C7.79517 22.9736 7.62866 23.0444 7.3291 22.9479L7.17651 22.9243L7.16333 22.9243C7.13818 22.9243 5.03394 22.6699 4.75293 16.0237C4.74292 15.7919 4.62085 15.1382 4.58423 14.9725C4.31909 13.7875 3.78711 12.8683 2.61938 11.5844C2.22852 11.1564 -1.06885 7.27179 3.05396 2.84418C4.94824 0.80957 7.74316 -0.568054 14.0901 4.64429C14.3062 4.82031 14.6226 4.79071 14.801 4.57465C14.9785 4.35883 14.947 4.04272 14.7319 3.86377C13.9185 3.19769 13.1553 2.63123 12.4395 2.15723C13.6089 0.982849 16.3691 1.30237 17.6321 1.77069C19.4614 2.44708 20.5884 3.65747 20.9836 5.37042C21.5864 7.98254 20.3311 11.0351 19.1909 12.2312Z" fill="#2CB2BB" fill-opacity="1.000000" fill-rule="nonzero"/>
</svg>
