<svg width="16.000000" height="16.000000" viewBox="0 0 16 16" fill="none" xmlns="http://www.w3.org/2000/svg" xmlns:xlink="http://www.w3.org/1999/xlink">
	<desc>
			Created with Pixso.
	</desc>
	<defs>
		<clipPath id="clip22_4843">
			<rect id="external-link 1" width="16.000000" height="16.000000" fill="white" fill-opacity="0"/>
		</clipPath>
	</defs>
	<rect id="external-link 1" width="16.000000" height="16.000000" fill="#FFFFFF" fill-opacity="0"/>
	<g clip-path="url(#clip22_4843)">
		<path id="Vector" d="M12 8.66675L12 12.6667C12 13.0203 11.8596 13.3594 11.6094 13.6094C11.3594 13.8596 11.0203 14 10.6667 14L3.33325 14C2.97974 14 2.64062 13.8596 2.39062 13.6094C2.14038 13.3594 2 13.0203 2 12.6667L2 5.33325C2 4.97974 2.14038 4.64062 2.39062 4.39062C2.64062 4.14038 2.97974 4 3.33325 4L7.33325 4" stroke="#2CB2BB" stroke-opacity="1.000000" stroke-width="1.500000" stroke-linejoin="round" stroke-linecap="round"/>
		<path id="Vector" d="M10 2L14 2L14 6" stroke="#2CB2BB" stroke-opacity="1.000000" stroke-width="1.500000" stroke-linejoin="round" stroke-linecap="round"/>
		<path id="Vector" d="M6.66675 9.33325L14 2" stroke="#2CB2BB" stroke-opacity="1.000000" stroke-width="1.500000" stroke-linejoin="round" stroke-linecap="round"/>
	</g>
</svg>
