<svg width="32.000000" height="32.000000" viewBox="0 0 32 32" fill="none" xmlns="http://www.w3.org/2000/svg" xmlns:xlink="http://www.w3.org/1999/xlink">
	<desc>
			Created with Pixso.
	</desc>
	<defs>
		<clipPath id="clip22_4921">
			<rect id="source_icons_instagram 1" width="32.000000" height="32.000000" fill="white" fill-opacity="0"/>
		</clipPath>
	</defs>
	<rect id="source_icons_instagram 1" width="32.000000" height="32.000000" fill="#FFFFFF" fill-opacity="0"/>
	<g clip-path="url(#clip22_4921)">
		<path id="Vector" d="M21.3335 16C21.3335 13.0544 18.9456 10.6667 16 10.6667C13.0544 10.6667 10.6667 13.0544 10.6667 16C10.6667 18.9456 13.0544 21.3335 16 21.3335C18.9456 21.3335 21.3335 18.9456 21.3335 16Z" stroke="#FFFFFF" stroke-opacity="1.000000" stroke-width="1.500000" stroke-linejoin="round"/>
		<path id="Vector" d="M4 10.6667C4 6.98486 6.98486 4 10.6667 4L21.3333 4C25.0151 4 28 6.98486 28 10.6667L28 21.3333C28 25.0151 25.0151 28 21.3333 28L10.6667 28C6.98486 28 4 25.0151 4 21.3333L4 10.6667Z" stroke="#FFFFFF" stroke-opacity="1.000000" stroke-width="1.500000"/>
		<path id="Vector" d="M23.3333 8.67969L23.3462 8.66528" stroke="#FFFFFF" stroke-opacity="1.000000" stroke-width="1.500000" stroke-linejoin="round" stroke-linecap="round"/>
	</g>
</svg>
