<svg width="32.000000" height="32.000000" viewBox="0 0 32 32" fill="none" xmlns="http://www.w3.org/2000/svg" xmlns:xlink="http://www.w3.org/1999/xlink">
	<desc>
			Created with Pixso.
	</desc>
	<defs>
		<clipPath id="clip22_4928">
			<rect id="source_icons_instagram 3" width="32.000000" height="32.000000" fill="white" fill-opacity="0"/>
		</clipPath>
	</defs>
	<rect id="source_icons_instagram 3" width="32.000000" height="32.000000" fill="#FFFFFF" fill-opacity="0"/>
	<g clip-path="url(#clip22_4928)">
		<path id="Vector" d="M4 10.6667C4 6.98486 6.98486 4 10.6667 4L21.3333 4C25.0151 4 28 6.98486 28 10.6667L28 21.3333C28 25.0151 25.0151 28 21.3333 28L10.6667 28C6.98486 28 4 25.0151 4 21.3333L4 10.6667Z" stroke="#FFFFFF" stroke-opacity="1.000000" stroke-width="1.500000"/>
		<path id="Union" d="M12.0757 12C12.0757 9.79395 13.8359 8 16.0005 8C18.165 8 19.9253 9.79395 19.9253 12C19.9253 14.2061 18.165 16 16.0005 16C13.8359 16 12.0757 14.2061 12.0757 12ZM13.0569 12C13.0569 13.6541 14.3777 15 16.0005 15C17.6233 15 18.9441 13.6541 18.9441 12C18.9441 10.3459 17.6233 9 16.0005 9C14.3777 9 13.0569 10.3459 13.0569 12ZM11.1436 16.949C12.2544 18.0803 13.6541 18.7432 15.1023 18.9363L12.165 23.2129C12.01 23.439 12.063 23.751 12.2856 23.9089C12.5073 24.0681 12.8135 24.0129 12.9685 23.7871L16.0005 19.3721L19.0334 23.7871C19.1287 23.926 19.2808 24 19.4348 24C19.533 24 19.6299 23.9709 19.7173 23.9089C19.939 23.751 19.9929 23.4399 19.8369 23.2129L16.8994 18.9363C18.3477 18.7427 19.7468 18.0801 20.8564 16.949C21.0479 16.7539 21.0479 16.437 20.8564 16.2419C20.6653 16.0469 20.354 16.0469 20.1628 16.2419C17.8657 18.582 14.1323 18.582 11.8372 16.2419C11.646 16.0469 11.3347 16.0469 11.1436 16.2419C10.9521 16.437 10.9521 16.7539 11.1436 16.949Z" fill="#FFFFFF" fill-opacity="1.000000" fill-rule="evenodd"/>
		<path id="Union" d="M16.0005 8C18.165 8 19.9253 9.79395 19.9253 12C19.9253 14.2061 18.165 16 16.0005 16C13.8359 16 12.0757 14.2061 12.0757 12C12.0757 9.79395 13.8359 8 16.0005 8ZM16.0005 15C17.6233 15 18.9441 13.6541 18.9441 12C18.9441 10.3459 17.6233 9 16.0005 9C14.3777 9 13.0569 10.3459 13.0569 12C13.0569 13.6541 14.3777 15 16.0005 15ZM15.1023 18.9363L12.165 23.2129C12.01 23.439 12.063 23.751 12.2856 23.9089C12.5073 24.0681 12.8135 24.0129 12.9685 23.7871L16.0005 19.3721L19.0334 23.7871C19.1287 23.926 19.2808 24 19.4348 24C19.533 24 19.6299 23.9709 19.7173 23.9089C19.939 23.751 19.9929 23.4399 19.8369 23.2129L16.8994 18.9363C18.3477 18.7427 19.7468 18.0801 20.8564 16.949C21.0479 16.7539 21.0479 16.437 20.8564 16.2419C20.6653 16.0469 20.354 16.0469 20.1628 16.2419C17.8657 18.582 14.1323 18.582 11.8372 16.2419C11.646 16.0469 11.3347 16.0469 11.1436 16.2419C10.9521 16.437 10.9521 16.7539 11.1436 16.949C12.2544 18.0803 13.6541 18.7432 15.1023 18.9363Z" stroke="#FFFFFF" stroke-opacity="1.000000" stroke-width="0.500000"/>
	</g>
</svg>
