<svg width="9.000000" height="10.000000" viewBox="0 0 9 10" fill="none" xmlns="http://www.w3.org/2000/svg" xmlns:xlink="http://www.w3.org/1999/xlink">
	<desc>
			Created with Pixso.
	</desc>
	<defs/>
	<path id="Union" d="M4.5 0C2.67017 0 1.18677 1.34644 1.18677 3.00732C1.18677 4.14478 1.88257 5.13477 2.90894 5.64575C1.21265 6.22095 0 7.68896 0 9.4165C0 9.73877 0.287842 10 0.642822 10C0.997803 10 1.28564 9.73877 1.28564 9.4165C1.28564 7.8457 2.71558 6.55298 4.5 6.55298C6.28442 6.55298 7.71436 7.8457 7.71436 9.4165C7.71436 9.73877 8.0022 10 8.35718 10C8.71216 10 9 9.73877 9 9.4165C9 7.68896 7.78735 6.22095 6.09106 5.64575C7.11743 5.13477 7.81323 4.14478 7.81323 3.00732C7.81323 1.34644 6.32983 0 4.5 0ZM2.47266 3.00732C2.47266 1.99097 3.38037 1.16699 4.5 1.16699C5.61987 1.16699 6.52759 1.99097 6.52759 3.00732C6.52759 4.02368 5.61987 4.84741 4.5 4.84741C3.38037 4.84741 2.47266 4.02368 2.47266 3.00732Z" fill="#E57E25" fill-opacity="1.000000" fill-rule="evenodd"/>
</svg>
