<svg width="16.000000" height="16.000000" viewBox="0 0 16 16" fill="none" xmlns="http://www.w3.org/2000/svg" xmlns:xlink="http://www.w3.org/1999/xlink">
	<desc>
			Created with Pixso.
	</desc>
	<defs>
		<clipPath id="clip22_4909">
			<rect id="user 1" width="16.000000" height="16.000000" fill="white" fill-opacity="0"/>
		</clipPath>
	</defs>
	<rect id="user 1" width="16.000000" height="16.000000" fill="#FFFFFF" fill-opacity="0"/>
	<g clip-path="url(#clip22_4909)">
		<path id="Vector" d="M13.3335 14L13.3335 12.6667C13.3335 11.9595 13.0525 11.2812 12.5522 10.781C12.0522 10.281 11.374 10 10.6667 10L5.3335 10C4.62622 10 3.948 10.281 3.44775 10.781C2.94775 11.2812 2.66675 11.9595 2.66675 12.6667L2.66675 14" stroke="#2CB2BB" stroke-opacity="1.000000" stroke-width="1.500000" stroke-linejoin="round" stroke-linecap="round"/>
		<path id="Vector" d="M8 7.33325C6.5271 7.33325 5.33325 6.1394 5.33325 4.66675C5.33325 3.19385 6.5271 2 8 2C9.47266 2 10.6665 3.19385 10.6665 4.66675C10.6665 6.1394 9.47266 7.33325 8 7.33325Z" stroke="#2CB2BB" stroke-opacity="1.000000" stroke-width="1.500000" stroke-linejoin="round"/>
	</g>
</svg>
