<svg width="32.000000" height="32.000000" viewBox="0 0 32 32" fill="none" xmlns="http://www.w3.org/2000/svg" xmlns:xlink="http://www.w3.org/1999/xlink">
	<desc>
			Created with Pixso.
	</desc>
	<defs>
		<clipPath id="clip22_4925">
			<rect id="source_icons_instagram 2" width="32.000000" height="32.000000" fill="white" fill-opacity="0"/>
		</clipPath>
	</defs>
	<rect id="source_icons_instagram 2" width="32.000000" height="32.000000" fill="#FFFFFF" fill-opacity="0"/>
	<g clip-path="url(#clip22_4925)">
		<path id="Vector" d="M4 10.6667C4 6.98486 6.98486 4 10.6667 4L21.3333 4C25.0151 4 28 6.98486 28 10.6667L28 21.3333C28 25.0151 25.0151 28 21.3333 28L10.6667 28C6.98486 28 4 25.0151 4 21.3333L4 10.6667Z" stroke="#FFFFFF" stroke-opacity="1.000000" stroke-width="1.500000"/>
		<path id="Vector" d="M23.9919 10.092Q23.5913 9.92847 23.1035 9.92847L21.353 9.92847Q20.8174 9.92847 20.3745 10.1311Q20.1206 10.2473 19.8975 10.4302Q19.8247 10.4895 19.7576 10.5544Q19.3989 10.9023 19.197 11.4124Q19.1436 11.5532 19.0513 11.771Q18.9553 11.9978 18.8523 12.2244L18.8523 12.125Q18.8523 11.2891 18.4756 10.7437Q18.324 10.5242 18.1257 10.3616Q17.9263 10.1978 17.6794 10.0916Q17.6733 10.0891 17.6675 10.0864Q17.293 9.92847 16.8521 9.92847L14.1013 9.92847Q13.8564 9.92847 13.6255 9.98584Q13.4626 10.0264 13.3069 10.0952Q13.1299 10.1738 12.9749 10.2834Q12.8132 10.3975 12.6758 10.5454Q12.5547 10.6758 12.4607 10.8232Q12.3752 10.957 12.312 11.1052Q11.9993 10.5181 11.5103 10.2239Q11.0193 9.92847 10.3506 9.92847L8.6001 9.92847Q8.16162 9.92847 7.7937 10.0591Q7.49072 10.1665 7.24902 10.3535Q7.10889 10.4617 6.9895 10.5967Q6.83911 10.7664 6.73486 10.9609Q6.5 11.3999 6.5 11.9644Q6.5 12.3784 6.67212 13.0613Q6.84985 13.7666 7.16699 14.5957Q8.00732 16.792 9.51074 19.0728Q10.1191 20.0186 10.8774 20.7896Q11.6267 21.551 12.4753 22.0901Q13.3315 22.6338 14.2383 22.9194Q15.1746 23.2141 16.1018 23.2141Q16.6528 23.2141 17.0508 23.1375Q17.6221 23.0273 18.0256 22.7344Q18.3162 22.5234 18.5044 22.2439Q18.7744 21.8433 18.8347 21.3013Q19.0178 21.5132 19.2341 21.7739Q19.4897 22.0818 19.6096 22.2156Q19.8494 22.4836 20.0635 22.658Q20.4446 22.9688 20.8806 23.106Q21.2249 23.2141 21.6033 23.2141L23.3535 23.2141Q23.8096 23.2141 24.1982 23.071Q24.5291 22.9492 24.7861 22.7375Q24.9426 22.6084 25.0718 22.446Q25.2102 22.2725 25.3037 22.0774Q25.4487 21.7759 25.4871 21.4231Q25.5347 20.9885 25.4075 20.5181L25.4028 20.5005L25.3977 20.4832Q25.22 19.884 24.6829 19.0972Q24.3098 18.5508 23.6528 17.7498Q23.4023 17.4319 22.8787 16.8767Q22.8572 16.854 22.8364 16.832Q23.2432 16.1921 23.6638 15.479Q24.1804 14.6035 24.5112 13.9448Q24.9651 13.042 25.0918 12.4756Q25.1826 12.123 25.1707 11.7922Q25.1577 11.439 25.0337 11.1304Q24.967 10.9648 24.8684 10.812Q24.7346 10.605 24.5581 10.4446Q24.3154 10.2241 23.9919 10.092ZM23.6328 12.125C23.7441 11.7234 23.6328 11.4285 23.1035 11.4285L21.353 11.4285C20.908 11.4285 20.7029 11.6833 20.5918 11.9644C20.5918 11.9644 19.8909 13.813 18.8523 15.2954C18.8057 15.3618 18.7583 15.4277 18.7104 15.4924C18.6226 15.6113 18.5325 15.7271 18.4404 15.8384C18.0325 16.28 17.8472 16.4207 17.6245 16.4207C17.5132 16.4207 17.3523 16.28 17.3523 15.8787L17.3523 12.125C17.3523 11.6431 17.2231 11.4285 16.8521 11.4285L14.1013 11.4285C13.8232 11.4285 13.656 11.6521 13.656 11.864C13.656 12.2024 14.0022 12.3479 14.2078 12.9229C14.2085 12.9248 14.2092 12.9265 14.2097 12.9285C14.2808 13.1287 14.3347 13.3809 14.3516 13.7107L14.3516 16.501C14.3516 17.1128 14.2495 17.2236 14.0269 17.2236C13.7947 17.2236 13.4326 16.8625 13.0264 16.2615C12.9688 16.1763 12.9104 16.0864 12.8516 15.9922C12.2615 15.0488 11.6079 13.6589 11.134 12.165C10.9663 11.6404 10.7979 11.4285 10.3506 11.4285L8.6001 11.4285C8.1001 11.4285 8 11.6833 8 11.9644C8 12.4663 8.59351 14.9553 10.7632 18.2473C12.2097 20.4954 14.2476 21.7141 16.1018 21.7141C17.2146 21.7141 17.3523 21.4436 17.3523 20.9773L17.3523 19.2781C17.3523 18.7368 17.4575 18.6287 17.8098 18.6287C18.0696 18.6287 18.5146 18.7693 19.5532 19.853C20.74 21.1379 20.9355 21.7141 21.6033 21.7141L23.3535 21.7141C23.8538 21.7141 24.1038 21.4436 23.9595 20.9094C23.8018 20.377 23.2351 19.6047 22.4832 18.689C22.0752 18.167 21.4631 17.605 21.2778 17.324C21.0181 16.9626 21.0923 16.802 21.2778 16.4807C21.2778 16.4807 23.4104 13.229 23.6328 12.125Z" fill="#FFFFFF" fill-opacity="1.000000" fill-rule="evenodd"/>
	</g>
</svg>
