<svg width="32.000000" height="32.000000" viewBox="0 0 32 32" fill="none" xmlns="http://www.w3.org/2000/svg" xmlns:xlink="http://www.w3.org/1999/xlink">
	<desc>
			Created with Pixso.
	</desc>
	<defs>
		<clipPath id="clip22_4935">
			<rect id="source_icons_youtube 1" width="32.000000" height="32.000000" fill="white" fill-opacity="0"/>
		</clipPath>
	</defs>
	<rect id="source_icons_youtube 1" width="32.000000" height="32.000000" fill="#FFFFFF" fill-opacity="0"/>
	<g clip-path="url(#clip22_4935)">
		<path id="Vector" d="M18.6667 16L14 18.6665L14 13.3333L18.6667 16Z" fill="#FFFFFF" fill-opacity="1.000000" fill-rule="nonzero"/>
		<path id="Vector" d="M14 18.6665L14 13.3333L18.6667 16L14 18.6665Z" stroke="#FFFFFF" stroke-opacity="1.000000" stroke-width="1.500000" stroke-linejoin="round"/>
		<path id="Vector" d="M2.66675 15.0566C2.66675 11.196 2.66675 9.26587 3.87402 8.02393C5.0813 6.78198 6.98218 6.72827 10.7837 6.62061C12.585 6.56982 14.425 6.5332 16 6.5332C17.575 6.5332 19.415 6.56982 21.2166 6.62061C25.0181 6.72827 26.9187 6.78198 28.126 8.02393C29.3335 9.26587 29.3335 11.196 29.3335 15.0566L29.3335 16.9434C29.3335 20.8037 29.3335 22.7339 28.126 23.9758C26.9187 25.2178 25.0181 25.2715 21.2166 25.3792C19.415 25.4302 17.575 25.4666 16 25.4666C14.425 25.4666 12.585 25.4302 10.7834 25.3792C6.98218 25.2715 5.0813 25.2178 3.87402 23.9758C2.66675 22.7339 2.66675 20.8037 2.66675 16.9434L2.66675 15.0566Z" stroke="#FFFFFF" stroke-opacity="1.000000" stroke-width="1.500000"/>
	</g>
</svg>
